<svg xmlns="http://www.w3.org/2000/svg" viewBox="0 0 64 64" role="img" aria-label="PREEB Cardano ADA favicon">
  <defs>
    <linearGradient id="bg" x1="0" y1="0" x2="1" y2="1">
      <stop offset="0%" stop-color="#0A0E1A"/>
      <stop offset="100%" stop-color="#1A4FD8"/>
    </linearGradient>
  </defs>

  <rect x="2" y="2" width="60" height="60" rx="14" fill="url(#bg)"/>

  <!-- Cardano ADA inspired dot constellation in brand blue -->
  <g fill="#3CC8C8">
    <!-- center -->
    <circle cx="32" cy="32" r="3.1"/>

    <!-- inner ring -->
    <circle cx="32" cy="22.8" r="1.8"/>
    <circle cx="32" cy="41.2" r="1.8"/>
    <circle cx="22.8" cy="32" r="1.8"/>
    <circle cx="41.2" cy="32" r="1.8"/>
    <circle cx="25.5" cy="25.5" r="1.6"/>
    <circle cx="38.5" cy="25.5" r="1.6"/>
    <circle cx="25.5" cy="38.5" r="1.6"/>
    <circle cx="38.5" cy="38.5" r="1.6"/>

    <!-- outer ring (radiating dots) -->
    <circle cx="32" cy="16.8" r="1.5"/>
    <circle cx="32" cy="47.2" r="1.5"/>
    <circle cx="16.8" cy="32" r="1.5"/>
    <circle cx="47.2" cy="32" r="1.5"/>
    <circle cx="21.2" cy="21.2" r="1.4"/>
    <circle cx="42.8" cy="21.2" r="1.4"/>
    <circle cx="21.2" cy="42.8" r="1.4"/>
    <circle cx="42.8" cy="42.8" r="1.4"/>
    <circle cx="27.6" cy="18.5" r="1.2"/>
    <circle cx="36.4" cy="18.5" r="1.2"/>
    <circle cx="27.6" cy="45.5" r="1.2"/>
    <circle cx="36.4" cy="45.5" r="1.2"/>
    <circle cx="18.5" cy="27.6" r="1.2"/>
    <circle cx="18.5" cy="36.4" r="1.2"/>
    <circle cx="45.5" cy="27.6" r="1.2"/>
    <circle cx="45.5" cy="36.4" r="1.2"/>
  </g>
</svg>
